<?xml version="1.0" standalone="no"?>
<!DOCTYPE svg PUBLIC "-//W3C//DTD SVG 20010904//EN"
 "http://www.w3.org/TR/2001/REC-SVG-20010904/DTD/svg10.dtd">
<svg version="1.0" xmlns="http://www.w3.org/2000/svg"
 width="163.000000pt" height="163.000000pt" viewBox="0 0 163.000000 163.000000"
 preserveAspectRatio="xMidYMid meet">

<g transform="translate(0.000000,163.000000) scale(0.100000,-0.100000)"
fill="#000000" stroke="none">
<path d="M665 1616 c-147 -28 -313 -114 -418 -214 -96 -92 -188 -249 -224
-382 -26 -94 -25 -321 1 -410 74 -250 228 -429 459 -535 203 -92 466 -92 666
2 291 136 473 419 474 733 0 58 -6 132 -13 165 -62 299 -289 542 -583 625 -99
27 -265 35 -362 16z m145 -393 c0 -218 -2 -394 -4 -392 -2 2 -106 146 -231
319 l-227 314 23 19 c83 67 268 127 417 136 l22 1 0 -397z m193 370 c106 -26
267 -102 267 -125 0 -7 -420 -589 -441 -612 -5 -6 -9 152 -9 377 l0 388 63 -6
c34 -4 88 -14 120 -22z m-588 -243 c133 -185 156 -216 264 -365 59 -82 108
-151 107 -152 -1 -1 -96 30 -211 68 -116 38 -281 92 -367 120 l-157 50 18 48
c26 64 75 146 124 206 54 66 138 139 147 128 4 -4 38 -51 75 -103z m952 43
c38 -38 83 -89 101 -116 39 -56 107 -195 99 -203 -6 -6 -730 -244 -733 -241
-4 4 451 627 458 627 4 0 38 -30 75 -67z m-878 -479 l294 -96 -54 -18 c-78
-26 -640 -207 -665 -214 -19 -6 -23 0 -35 56 -18 80 -18 299 0 353 7 22 14 45
16 52 3 9 24 5 77 -12 40 -13 205 -67 367 -121z m1105 77 c20 -90 21 -262 1
-350 l-16 -67 -222 72 c-122 40 -289 95 -372 122 l-150 48 365 121 c201 67
368 122 372 122 3 1 14 -30 22 -68z m-796 -584 l2 -387 -47 0 c-56 0 -154 22
-233 51 -58 22 -156 74 -165 89 -5 8 60 101 300 430 128 175 138 191 132 196
-2 2 -31 -33 -64 -78 -32 -46 -108 -150 -168 -233 -60 -82 -133 -185 -163
-227 l-55 -77 -37 29 c-48 38 -108 104 -148 163 -35 49 -107 195 -101 201 2 2
126 43 274 91 149 47 308 99 355 115 47 16 92 28 100 27 13 -2 15 -54 18 -390z
m202 341 c297 -94 556 -181 564 -189 12 -11 -45 -129 -98 -203 -46 -65 -154
-176 -171 -176 -8 1 -423 561 -449 607 -7 13 -5 15 10 9 10 -4 75 -26 144 -48z
m-24 -163 c76 -104 175 -241 221 -304 l83 -114 -36 -25 c-94 -64 -271 -122
-371 -122 l-53 0 0 387 c0 224 4 383 9 378 5 -6 71 -95 147 -200z"/>
<path d="M1290 30 c0 -5 12 -10 28 -10 21 0 24 2 12 10 -20 13 -40 13 -40 0z"/>
<path d="M1350 30 c0 -5 5 -10 11 -10 5 0 7 5 4 10 -3 6 -8 10 -11 10 -2 0 -4
-4 -4 -10z"/>
<path d="M1389 29 c-6 -3 6 -6 26 -7 19 -1 35 2 35 7 0 10 -46 10 -61 0z"/>
<path d="M1498 23 c12 -2 30 -2 40 0 9 3 -1 5 -23 4 -22 0 -30 -2 -17 -4z"/>
       <animateTransform
         id="myanim"
         attributeName="transform"
         begin="indefinite"
         dur="5s"
         type="rotate"
         from="0 100 100"
         to="360 100 100"
         fill="freeze"
         repeatCount="indefinite"
    />
</g>
</svg>
